<?xml version="1.0" standalone="no"?>
<!DOCTYPE svg PUBLIC "-//W3C//DTD SVG 20010904//EN"
 "http://www.w3.org/TR/2001/REC-SVG-20010904/DTD/svg10.dtd">
<svg version="1.0" xmlns="http://www.w3.org/2000/svg"
 width="512.000000pt" height="512.000000pt" viewBox="0 0 512.000000 512.000000"
 preserveAspectRatio="xMidYMid meet">
<metadata>
Created by potrace 1.14, written by Peter Selinger 2001-2017
</metadata>
<g transform="translate(0.000000,512.000000) scale(0.100000,-0.100000)"
fill="#000000" stroke="none">
<path d="M2295 5113 c-16 -1 -79 -8 -140 -14 -308 -31 -426 -70 -529 -174 -94
-96 -131 -191 -156 -395 -6 -52 -13 -108 -15 -125 -20 -144 -28 -716 -12 -905
32 -391 57 -500 137 -606 l39 -51 -49 -6 c-55 -7 -150 -53 -195 -95 -40 -36
-90 -111 -100 -148 -4 -16 -11 -36 -14 -44 -12 -34 -12 -685 0 -743 22 -108
111 -216 216 -264 66 -30 108 -35 303 -36 l155 -1 5 -606 c6 -655 4 -630 63
-720 42 -64 92 -107 167 -144 l65 -31 330 0 330 0 66 32 c111 55 192 155 219
273 6 28 9 255 7 618 -2 502 0 572 13 573 8 1 94 2 190 4 152 2 183 6 233 25
110 42 207 145 239 255 16 53 21 669 6 745 -22 114 -95 214 -196 268 -52 28
-132 50 -156 44 -5 -2 -2 7 7 20 84 117 108 187 131 383 45 375 52 738 21
1095 -8 96 -31 269 -44 338 -30 154 -149 298 -291 353 -57 22 -224 53 -345 64
-38 4 -83 9 -100 12 -34 5 -554 11 -600 6z"/>
</g>
</svg>
